<svg width="582" height="205" viewBox="0 0 582 205" fill="none" xmlns="http://www.w3.org/2000/svg">
<path d="M11.3716 200.131H10.1836V191.263H10.7596L14.5876 196.891L18.3916 191.263H18.9796V200.131H17.7796V194.143L14.7316 198.619H14.4196L11.3716 194.143V200.131ZM26.0124 194.635V193.699H27.1164V200.131H26.0124V199.219C25.4364 199.931 24.6804 200.287 23.7444 200.287C22.8164 200.287 22.0484 199.959 21.4404 199.303C20.8324 198.647 20.5284 197.835 20.5284 196.867C20.5284 195.899 20.8324 195.107 21.4404 194.491C22.0484 193.859 22.8164 193.543 23.7444 193.543C24.6564 193.543 25.4124 193.907 26.0124 194.635ZM26.0844 196.903C26.0844 196.255 25.8804 195.711 25.4724 195.271C25.0644 194.823 24.5324 194.599 23.8764 194.599C23.2204 194.599 22.6924 194.823 22.2924 195.271C21.8924 195.719 21.6924 196.267 21.6924 196.915C21.6924 197.563 21.8924 198.111 22.2924 198.559C22.6924 199.007 23.2204 199.231 23.8764 199.231C24.5324 199.231 25.0644 199.007 25.4724 198.559C25.8804 198.119 26.0844 197.567 26.0844 196.903ZM31.4969 198.523L33.2249 193.699H34.4969L31.7969 200.851C31.5329 201.563 31.2209 202.075 30.8609 202.387C30.5089 202.707 30.0769 202.867 29.5649 202.867C29.1569 202.867 28.8129 202.783 28.5329 202.615L28.6769 201.607C28.9649 201.735 29.2249 201.799 29.4569 201.799C29.9849 201.799 30.4089 201.423 30.7289 200.671L30.9689 200.107L28.1729 193.699H29.5049L31.4969 198.523ZM42.3902 196.303L39.9182 199.027H43.7342V200.131H38.2022V199.135L41.0462 196.087C41.5582 195.551 41.9222 195.115 42.1382 194.779C42.3542 194.435 42.4622 194.079 42.4622 193.711C42.4622 193.279 42.3062 192.923 41.9942 192.643C41.6902 192.355 41.3102 192.211 40.8542 192.211C40.1182 192.211 39.4022 192.547 38.7062 193.219L38.0462 192.367C38.9022 191.527 39.8462 191.107 40.8782 191.107C41.6862 191.107 42.3462 191.351 42.8582 191.839C43.3702 192.327 43.6262 192.971 43.6262 193.771C43.6262 194.555 43.2142 195.399 42.3902 196.303ZM48.4094 200.275C47.8014 200.275 47.2654 200.143 46.8014 199.879C46.3374 199.607 45.9694 199.239 45.6974 198.775C45.1934 197.887 44.9414 196.859 44.9414 195.691C44.9414 194.523 45.1934 193.495 45.6974 192.607C45.9694 192.143 46.3374 191.779 46.8014 191.515C47.2654 191.243 47.8014 191.107 48.4094 191.107C49.0254 191.107 49.5654 191.243 50.0294 191.515C50.4934 191.787 50.8534 192.151 51.1094 192.607C51.3654 193.055 51.5534 193.539 51.6734 194.059C51.8014 194.579 51.8654 195.123 51.8654 195.691C51.8654 196.259 51.8014 196.803 51.6734 197.323C51.5534 197.843 51.3654 198.331 51.1094 198.787C50.8534 199.235 50.4934 199.595 50.0294 199.867C49.5654 200.139 49.0254 200.275 48.4094 200.275ZM50.6534 195.691C50.6534 194.675 50.4694 193.847 50.1014 193.207C49.7334 192.551 49.1694 192.223 48.4094 192.223C47.6494 192.223 47.0854 192.551 46.7174 193.207C46.3494 193.847 46.1654 194.675 46.1654 195.691C46.1654 196.715 46.3494 197.547 46.7174 198.187C47.0934 198.835 47.6574 199.159 48.4094 199.159C49.1614 199.159 49.7254 198.835 50.1014 198.187C50.4694 197.547 50.6534 196.715 50.6534 195.691ZM57.1207 196.303L54.6487 199.027H58.4647V200.131H52.9327V199.135L55.7767 196.087C56.2887 195.551 56.6527 195.115 56.8687 194.779C57.0847 194.435 57.1927 194.079 57.1927 193.711C57.1927 193.279 57.0367 192.923 56.7247 192.643C56.4207 192.355 56.0407 192.211 55.5847 192.211C54.8487 192.211 54.1327 192.547 53.4367 193.219L52.7767 192.367C53.6327 191.527 54.5767 191.107 55.6087 191.107C56.4167 191.107 57.0767 191.351 57.5887 191.839C58.1007 192.327 58.3567 192.971 58.3567 193.771C58.3567 194.555 57.9447 195.399 57.1207 196.303ZM59.1078 193.375L61.6158 191.263H62.5638V200.131H61.3758V192.859L59.7678 194.203L59.1078 193.375Z" fill="white"/>
<path d="M86.6991 200.275C85.6671 200.275 84.8191 199.895 84.1551 199.135L84.8871 198.259C85.3671 198.843 85.9711 199.135 86.6991 199.135C87.2351 199.135 87.6631 198.967 87.9831 198.631C88.3031 198.287 88.4631 197.807 88.4631 197.191V191.263H89.6631V197.251C89.6631 198.211 89.3871 198.955 88.8351 199.483C88.2991 200.011 87.5871 200.275 86.6991 200.275ZM94.1842 200.287C93.3442 200.287 92.6722 200.039 92.1682 199.543C91.6722 199.047 91.4242 198.379 91.4242 197.539V193.699H92.5762V197.503C92.5762 198.031 92.7162 198.451 92.9962 198.763C93.2842 199.067 93.6802 199.219 94.1842 199.219C94.6882 199.219 95.0842 199.067 95.3722 198.763C95.6602 198.451 95.8042 198.031 95.8042 197.503V193.699H96.9442V197.539C96.9442 198.395 96.6962 199.067 96.2002 199.555C95.7122 200.043 95.0402 200.287 94.1842 200.287ZM99.7969 200.131H98.6449V193.699H99.7729V194.611C100.181 193.891 100.861 193.531 101.813 193.531C102.533 193.531 103.137 193.763 103.625 194.227C104.113 194.691 104.357 195.359 104.357 196.231V200.131H103.217V196.555C103.217 195.939 103.065 195.459 102.761 195.115C102.465 194.771 102.069 194.599 101.573 194.599C101.053 194.599 100.625 194.783 100.289 195.151C99.9609 195.527 99.7969 195.999 99.7969 196.567V200.131ZM112.904 196.303L110.432 199.027H114.248V200.131H108.716V199.135L111.56 196.087C112.072 195.551 112.436 195.115 112.652 194.779C112.868 194.435 112.976 194.079 112.976 193.711C112.976 193.279 112.82 192.923 112.508 192.643C112.204 192.355 111.824 192.211 111.368 192.211C110.632 192.211 109.916 192.547 109.22 193.219L108.56 192.367C109.416 191.527 110.36 191.107 111.392 191.107C112.2 191.107 112.86 191.351 113.372 191.839C113.884 192.327 114.14 192.971 114.14 193.771C114.14 194.555 113.728 195.399 112.904 196.303ZM118.923 200.275C118.315 200.275 117.779 200.143 117.315 199.879C116.851 199.607 116.483 199.239 116.211 198.775C115.707 197.887 115.455 196.859 115.455 195.691C115.455 194.523 115.707 193.495 116.211 192.607C116.483 192.143 116.851 191.779 117.315 191.515C117.779 191.243 118.315 191.107 118.923 191.107C119.539 191.107 120.079 191.243 120.543 191.515C121.007 191.787 121.367 192.151 121.623 192.607C121.879 193.055 122.067 193.539 122.187 194.059C122.315 194.579 122.379 195.123 122.379 195.691C122.379 196.259 122.315 196.803 122.187 197.323C122.067 197.843 121.879 198.331 121.623 198.787C121.367 199.235 121.007 199.595 120.543 199.867C120.079 200.139 119.539 200.275 118.923 200.275ZM121.167 195.691C121.167 194.675 120.983 193.847 120.615 193.207C120.247 192.551 119.683 192.223 118.923 192.223C118.163 192.223 117.599 192.551 117.231 193.207C116.863 193.847 116.679 194.675 116.679 195.691C116.679 196.715 116.863 197.547 117.231 198.187C117.607 198.835 118.171 199.159 118.923 199.159C119.675 199.159 120.239 198.835 120.615 198.187C120.983 197.547 121.167 196.715 121.167 195.691ZM127.634 196.303L125.162 199.027H128.978V200.131H123.446V199.135L126.29 196.087C126.802 195.551 127.166 195.115 127.382 194.779C127.598 194.435 127.706 194.079 127.706 193.711C127.706 193.279 127.55 192.923 127.238 192.643C126.934 192.355 126.554 192.211 126.098 192.211C125.362 192.211 124.646 192.547 123.95 193.219L123.29 192.367C124.146 191.527 125.09 191.107 126.122 191.107C126.93 191.107 127.59 191.351 128.102 191.839C128.614 192.327 128.87 192.971 128.87 193.771C128.87 194.555 128.458 195.399 127.634 196.303ZM129.621 193.375L132.129 191.263H133.077V200.131H131.889V192.859L130.281 194.203L129.621 193.375Z" fill="white"/>
<path d="M161.66 200.275C160.628 200.275 159.78 199.895 159.116 199.135L159.848 198.259C160.328 198.843 160.932 199.135 161.66 199.135C162.196 199.135 162.624 198.967 162.944 198.631C163.264 198.287 163.424 197.807 163.424 197.191V191.263H164.624V197.251C164.624 198.211 164.348 198.955 163.796 199.483C163.26 200.011 162.548 200.275 161.66 200.275ZM169.145 200.287C168.305 200.287 167.633 200.039 167.129 199.543C166.633 199.047 166.385 198.379 166.385 197.539V193.699H167.537V197.503C167.537 198.031 167.677 198.451 167.957 198.763C168.245 199.067 168.641 199.219 169.145 199.219C169.649 199.219 170.045 199.067 170.333 198.763C170.621 198.451 170.765 198.031 170.765 197.503V193.699H171.905V197.539C171.905 198.395 171.657 199.067 171.161 199.555C170.673 200.043 170.001 200.287 169.145 200.287ZM174.758 191.047V200.131H173.606V191.047H174.758ZM183.388 196.303L180.916 199.027H184.732V200.131H179.2V199.135L182.044 196.087C182.556 195.551 182.92 195.115 183.136 194.779C183.352 194.435 183.46 194.079 183.46 193.711C183.46 193.279 183.304 192.923 182.992 192.643C182.688 192.355 182.308 192.211 181.852 192.211C181.116 192.211 180.4 192.547 179.704 193.219L179.044 192.367C179.9 191.527 180.844 191.107 181.876 191.107C182.684 191.107 183.344 191.351 183.856 191.839C184.368 192.327 184.624 192.971 184.624 193.771C184.624 194.555 184.212 195.399 183.388 196.303ZM189.407 200.275C188.799 200.275 188.263 200.143 187.799 199.879C187.335 199.607 186.967 199.239 186.695 198.775C186.191 197.887 185.939 196.859 185.939 195.691C185.939 194.523 186.191 193.495 186.695 192.607C186.967 192.143 187.335 191.779 187.799 191.515C188.263 191.243 188.799 191.107 189.407 191.107C190.023 191.107 190.563 191.243 191.027 191.515C191.491 191.787 191.851 192.151 192.107 192.607C192.363 193.055 192.551 193.539 192.671 194.059C192.799 194.579 192.863 195.123 192.863 195.691C192.863 196.259 192.799 196.803 192.671 197.323C192.551 197.843 192.363 198.331 192.107 198.787C191.851 199.235 191.491 199.595 191.027 199.867C190.563 200.139 190.023 200.275 189.407 200.275ZM191.651 195.691C191.651 194.675 191.467 193.847 191.099 193.207C190.731 192.551 190.167 192.223 189.407 192.223C188.647 192.223 188.083 192.551 187.715 193.207C187.347 193.847 187.163 194.675 187.163 195.691C187.163 196.715 187.347 197.547 187.715 198.187C188.091 198.835 188.655 199.159 189.407 199.159C190.159 199.159 190.723 198.835 191.099 198.187C191.467 197.547 191.651 196.715 191.651 195.691ZM198.118 196.303L195.646 199.027H199.462V200.131H193.93V199.135L196.774 196.087C197.286 195.551 197.65 195.115 197.866 194.779C198.082 194.435 198.19 194.079 198.19 193.711C198.19 193.279 198.034 192.923 197.722 192.643C197.418 192.355 197.038 192.211 196.582 192.211C195.846 192.211 195.13 192.547 194.434 193.219L193.774 192.367C194.63 191.527 195.574 191.107 196.606 191.107C197.414 191.107 198.074 191.351 198.586 191.839C199.098 192.327 199.354 192.971 199.354 193.771C199.354 194.555 198.942 195.399 198.118 196.303ZM200.106 193.375L202.614 191.263H203.562V200.131H202.374V192.859L200.766 194.203L200.106 193.375Z" fill="white"/>
<path d="M236.398 200.131H235.09L234.19 197.827H230.818L229.918 200.131H228.61L232.198 191.263H232.846L236.398 200.131ZM233.782 196.699L232.51 193.351L231.226 196.699H233.782ZM240.022 200.287C239.182 200.287 238.51 200.039 238.006 199.543C237.51 199.047 237.262 198.379 237.262 197.539V193.699H238.414V197.503C238.414 198.031 238.554 198.451 238.834 198.763C239.122 199.067 239.518 199.219 240.022 199.219C240.526 199.219 240.922 199.067 241.21 198.763C241.498 198.451 241.642 198.031 241.642 197.503V193.699H242.782V197.539C242.782 198.395 242.534 199.067 242.038 199.555C241.55 200.043 240.878 200.287 240.022 200.287ZM249.571 194.539V193.699H250.711V199.471C250.711 200.503 250.399 201.327 249.775 201.943C249.143 202.559 248.307 202.867 247.267 202.867C246.219 202.867 245.271 202.563 244.423 201.955L244.963 201.043C245.667 201.563 246.431 201.823 247.255 201.823C247.967 201.823 248.531 201.619 248.947 201.211C249.363 200.819 249.571 200.303 249.571 199.663V199.135C248.995 199.807 248.243 200.143 247.315 200.143C246.387 200.143 245.619 199.827 245.011 199.195C244.395 198.555 244.087 197.767 244.087 196.831C244.087 195.895 244.403 195.115 245.035 194.491C245.667 193.859 246.447 193.543 247.375 193.543C248.263 193.543 248.995 193.875 249.571 194.539ZM245.875 198.463C246.299 198.895 246.823 199.111 247.447 199.111C248.079 199.111 248.603 198.895 249.019 198.463C249.435 198.039 249.643 197.499 249.643 196.843C249.643 196.187 249.435 195.651 249.019 195.235C248.595 194.803 248.071 194.587 247.447 194.587C246.815 194.587 246.291 194.803 245.875 195.235C245.459 195.651 245.251 196.187 245.251 196.843C245.251 197.499 245.459 198.039 245.875 198.463ZM259.327 196.303L256.855 199.027H260.671V200.131H255.139V199.135L257.983 196.087C258.495 195.551 258.859 195.115 259.075 194.779C259.291 194.435 259.399 194.079 259.399 193.711C259.399 193.279 259.243 192.923 258.931 192.643C258.627 192.355 258.247 192.211 257.791 192.211C257.055 192.211 256.339 192.547 255.643 193.219L254.983 192.367C255.839 191.527 256.783 191.107 257.815 191.107C258.623 191.107 259.283 191.351 259.795 191.839C260.307 192.327 260.563 192.971 260.563 193.771C260.563 194.555 260.151 195.399 259.327 196.303ZM265.346 200.275C264.738 200.275 264.202 200.143 263.738 199.879C263.274 199.607 262.906 199.239 262.634 198.775C262.13 197.887 261.878 196.859 261.878 195.691C261.878 194.523 262.13 193.495 262.634 192.607C262.906 192.143 263.274 191.779 263.738 191.515C264.202 191.243 264.738 191.107 265.346 191.107C265.962 191.107 266.502 191.243 266.966 191.515C267.43 191.787 267.79 192.151 268.046 192.607C268.302 193.055 268.49 193.539 268.61 194.059C268.738 194.579 268.802 195.123 268.802 195.691C268.802 196.259 268.738 196.803 268.61 197.323C268.49 197.843 268.302 198.331 268.046 198.787C267.79 199.235 267.43 199.595 266.966 199.867C266.502 200.139 265.962 200.275 265.346 200.275ZM267.59 195.691C267.59 194.675 267.406 193.847 267.038 193.207C266.67 192.551 266.106 192.223 265.346 192.223C264.586 192.223 264.022 192.551 263.654 193.207C263.286 193.847 263.102 194.675 263.102 195.691C263.102 196.715 263.286 197.547 263.654 198.187C264.03 198.835 264.594 199.159 265.346 199.159C266.098 199.159 266.662 198.835 267.038 198.187C267.406 197.547 267.59 196.715 267.59 195.691ZM274.058 196.303L271.586 199.027H275.402V200.131H269.87V199.135L272.714 196.087C273.226 195.551 273.59 195.115 273.806 194.779C274.022 194.435 274.13 194.079 274.13 193.711C274.13 193.279 273.974 192.923 273.662 192.643C273.358 192.355 272.978 192.211 272.522 192.211C271.786 192.211 271.07 192.547 270.374 193.219L269.714 192.367C270.57 191.527 271.514 191.107 272.546 191.107C273.354 191.107 274.014 191.351 274.526 191.839C275.038 192.327 275.294 192.971 275.294 193.771C275.294 194.555 274.882 195.399 274.058 196.303ZM276.045 193.375L278.553 191.263H279.501V200.131H278.313V192.859L276.705 194.203L276.045 193.375Z" fill="white"/>
<path d="M305.032 200.275C304.376 200.275 303.776 200.119 303.232 199.807C302.696 199.487 302.288 199.035 302.008 198.451L302.896 197.719C303.376 198.663 304.084 199.135 305.02 199.135C305.516 199.135 305.912 199.007 306.208 198.751C306.504 198.495 306.652 198.175 306.652 197.791C306.652 197.319 306.344 196.907 305.728 196.555C305.616 196.499 305.312 196.355 304.816 196.123C304.408 195.939 304.076 195.771 303.82 195.619C302.932 195.059 302.488 194.355 302.488 193.507C302.488 192.827 302.732 192.259 303.22 191.803C303.708 191.339 304.356 191.107 305.164 191.107C306.268 191.107 307.136 191.543 307.768 192.415L306.964 193.183C306.484 192.551 305.888 192.235 305.176 192.235C304.768 192.235 304.432 192.347 304.168 192.571C303.904 192.787 303.772 193.075 303.772 193.435C303.772 193.899 304.024 194.279 304.528 194.575C304.736 194.703 305.08 194.879 305.56 195.103C306.064 195.343 306.436 195.531 306.676 195.667C307.532 196.187 307.96 196.875 307.96 197.731C307.96 198.491 307.68 199.103 307.12 199.567C306.56 200.039 305.864 200.275 305.032 200.275ZM315.322 196.795C315.322 196.875 315.31 197.071 315.286 197.383H310.162C310.266 197.951 310.506 198.399 310.882 198.727C311.258 199.055 311.77 199.219 312.418 199.219C312.802 199.219 313.198 199.155 313.606 199.027C314.014 198.891 314.366 198.715 314.662 198.499L315.154 199.375C314.818 199.631 314.402 199.847 313.906 200.023C313.41 200.191 312.906 200.275 312.394 200.275C311.81 200.275 311.29 200.179 310.834 199.987C310.386 199.795 310.03 199.535 309.766 199.207C309.502 198.879 309.302 198.519 309.166 198.127C309.03 197.735 308.962 197.323 308.962 196.891C308.962 195.931 309.262 195.131 309.862 194.491C310.47 193.859 311.254 193.543 312.214 193.543C313.126 193.543 313.87 193.835 314.446 194.419C315.03 195.003 315.322 195.795 315.322 196.795ZM310.162 196.387H314.134C314.102 195.835 313.906 195.395 313.546 195.067C313.194 194.731 312.75 194.563 312.214 194.563C311.694 194.563 311.246 194.735 310.87 195.079C310.494 195.415 310.258 195.851 310.162 196.387ZM320.126 193.543C321.046 193.543 321.81 193.871 322.418 194.527C323.034 195.191 323.342 195.987 323.342 196.915C323.342 197.851 323.034 198.651 322.418 199.315C321.81 199.963 321.042 200.287 320.114 200.287C319.178 200.287 318.418 199.923 317.834 199.195V202.783H316.682V193.699H317.834V194.671C318.434 193.919 319.198 193.543 320.126 193.543ZM322.19 196.903C322.19 196.255 321.986 195.711 321.578 195.271C321.17 194.823 320.638 194.599 319.982 194.599C319.326 194.599 318.794 194.823 318.386 195.271C317.986 195.719 317.786 196.263 317.786 196.903C317.786 197.559 317.986 198.111 318.386 198.559C318.794 199.007 319.326 199.231 319.982 199.231C320.638 199.231 321.17 199.007 321.578 198.559C321.986 198.119 322.19 197.567 322.19 196.903ZM331.561 196.303L329.089 199.027H332.905V200.131H327.373V199.135L330.217 196.087C330.729 195.551 331.093 195.115 331.309 194.779C331.525 194.435 331.633 194.079 331.633 193.711C331.633 193.279 331.477 192.923 331.165 192.643C330.861 192.355 330.481 192.211 330.025 192.211C329.289 192.211 328.573 192.547 327.877 193.219L327.217 192.367C328.073 191.527 329.017 191.107 330.049 191.107C330.857 191.107 331.517 191.351 332.029 191.839C332.541 192.327 332.797 192.971 332.797 193.771C332.797 194.555 332.385 195.399 331.561 196.303ZM337.581 200.275C336.973 200.275 336.437 200.143 335.973 199.879C335.509 199.607 335.141 199.239 334.869 198.775C334.365 197.887 334.113 196.859 334.113 195.691C334.113 194.523 334.365 193.495 334.869 192.607C335.141 192.143 335.509 191.779 335.973 191.515C336.437 191.243 336.973 191.107 337.581 191.107C338.197 191.107 338.737 191.243 339.201 191.515C339.665 191.787 340.025 192.151 340.281 192.607C340.537 193.055 340.725 193.539 340.845 194.059C340.973 194.579 341.037 195.123 341.037 195.691C341.037 196.259 340.973 196.803 340.845 197.323C340.725 197.843 340.537 198.331 340.281 198.787C340.025 199.235 339.665 199.595 339.201 199.867C338.737 200.139 338.197 200.275 337.581 200.275ZM339.825 195.691C339.825 194.675 339.641 193.847 339.273 193.207C338.905 192.551 338.341 192.223 337.581 192.223C336.821 192.223 336.257 192.551 335.889 193.207C335.521 193.847 335.337 194.675 335.337 195.691C335.337 196.715 335.521 197.547 335.889 198.187C336.265 198.835 336.829 199.159 337.581 199.159C338.333 199.159 338.897 198.835 339.273 198.187C339.641 197.547 339.825 196.715 339.825 195.691ZM346.292 196.303L343.82 199.027H347.636V200.131H342.104V199.135L344.948 196.087C345.46 195.551 345.824 195.115 346.04 194.779C346.256 194.435 346.364 194.079 346.364 193.711C346.364 193.279 346.208 192.923 345.896 192.643C345.592 192.355 345.212 192.211 344.756 192.211C344.02 192.211 343.304 192.547 342.608 193.219L341.948 192.367C342.804 191.527 343.748 191.107 344.78 191.107C345.588 191.107 346.248 191.351 346.76 191.839C347.272 192.327 347.528 192.971 347.528 193.771C347.528 194.555 347.116 195.399 346.292 196.303ZM348.279 193.375L350.787 191.263H351.735V200.131H350.547V192.859L348.939 194.203L348.279 193.375Z" fill="white"/>
<path d="M374.736 195.751C374.736 194.455 375.184 193.359 376.08 192.463C376.984 191.559 378.064 191.107 379.32 191.107C380.576 191.107 381.656 191.559 382.56 192.463C383.464 193.367 383.916 194.447 383.916 195.703C383.916 196.959 383.464 198.039 382.56 198.943C381.656 199.831 380.564 200.275 379.284 200.275C377.996 200.275 376.916 199.839 376.044 198.967C375.172 198.095 374.736 197.023 374.736 195.751ZM382.668 195.715C382.668 194.739 382.344 193.923 381.696 193.267C381.048 192.611 380.256 192.283 379.32 192.283C378.392 192.283 377.604 192.615 376.956 193.279C376.308 193.943 375.984 194.755 375.984 195.715C375.984 196.667 376.304 197.475 376.944 198.139C377.576 198.787 378.368 199.111 379.32 199.111C380.272 199.111 381.064 198.787 381.696 198.139C382.344 197.491 382.668 196.683 382.668 195.715ZM388.349 200.275C387.349 200.275 386.533 199.959 385.901 199.327C385.269 198.695 384.953 197.891 384.953 196.915C384.953 195.939 385.273 195.131 385.913 194.491C386.553 193.859 387.385 193.543 388.409 193.543C389.041 193.543 389.621 193.695 390.149 193.999C390.685 194.303 391.077 194.711 391.325 195.223L390.377 195.775C390.161 195.407 389.877 195.119 389.525 194.911C389.181 194.703 388.809 194.599 388.409 194.599C387.753 194.599 387.205 194.819 386.765 195.259C386.333 195.707 386.117 196.259 386.117 196.915C386.117 197.563 386.329 198.111 386.753 198.559C387.169 198.999 387.701 199.219 388.349 199.219C388.749 199.219 389.133 199.111 389.501 198.895C389.877 198.679 390.157 198.403 390.341 198.067L391.301 198.619C391.029 199.123 390.629 199.523 390.101 199.819C389.557 200.123 388.973 200.275 388.349 200.275ZM396.301 198.859L396.733 199.747C396.269 200.107 395.697 200.287 395.017 200.287C394.345 200.287 393.833 200.079 393.481 199.663C393.137 199.247 392.965 198.651 392.965 197.875V194.683H391.825V193.699H392.977V191.419H394.105V193.699H396.385V194.683H394.105V197.959C394.105 198.807 394.453 199.231 395.149 199.231C395.525 199.231 395.909 199.107 396.301 198.859ZM404.495 196.303L402.023 199.027H405.839V200.131H400.307V199.135L403.151 196.087C403.663 195.551 404.027 195.115 404.243 194.779C404.459 194.435 404.567 194.079 404.567 193.711C404.567 193.279 404.411 192.923 404.099 192.643C403.795 192.355 403.415 192.211 402.959 192.211C402.223 192.211 401.507 192.547 400.811 193.219L400.151 192.367C401.007 191.527 401.951 191.107 402.983 191.107C403.791 191.107 404.451 191.351 404.963 191.839C405.475 192.327 405.731 192.971 405.731 193.771C405.731 194.555 405.319 195.399 404.495 196.303ZM410.514 200.275C409.906 200.275 409.37 200.143 408.906 199.879C408.442 199.607 408.074 199.239 407.802 198.775C407.298 197.887 407.046 196.859 407.046 195.691C407.046 194.523 407.298 193.495 407.802 192.607C408.074 192.143 408.442 191.779 408.906 191.515C409.37 191.243 409.906 191.107 410.514 191.107C411.13 191.107 411.67 191.243 412.134 191.515C412.598 191.787 412.958 192.151 413.214 192.607C413.47 193.055 413.658 193.539 413.778 194.059C413.906 194.579 413.97 195.123 413.97 195.691C413.97 196.259 413.906 196.803 413.778 197.323C413.658 197.843 413.47 198.331 413.214 198.787C412.958 199.235 412.598 199.595 412.134 199.867C411.67 200.139 411.13 200.275 410.514 200.275ZM412.758 195.691C412.758 194.675 412.574 193.847 412.206 193.207C411.838 192.551 411.274 192.223 410.514 192.223C409.754 192.223 409.19 192.551 408.822 193.207C408.454 193.847 408.27 194.675 408.27 195.691C408.27 196.715 408.454 197.547 408.822 198.187C409.198 198.835 409.762 199.159 410.514 199.159C411.266 199.159 411.83 198.835 412.206 198.187C412.574 197.547 412.758 196.715 412.758 195.691ZM419.225 196.303L416.753 199.027H420.569V200.131H415.037V199.135L417.881 196.087C418.393 195.551 418.757 195.115 418.973 194.779C419.189 194.435 419.297 194.079 419.297 193.711C419.297 193.279 419.141 192.923 418.829 192.643C418.525 192.355 418.145 192.211 417.689 192.211C416.953 192.211 416.237 192.547 415.541 193.219L414.881 192.367C415.737 191.527 416.681 191.107 417.713 191.107C418.521 191.107 419.181 191.351 419.693 191.839C420.205 192.327 420.461 192.971 420.461 193.771C420.461 194.555 420.049 195.399 419.225 196.303ZM421.212 193.375L423.72 191.263H424.668V200.131H423.48V192.859L421.872 194.203L421.212 193.375Z" fill="white"/>
<path d="M453.611 197.587V191.263H454.799V200.131H454.175L448.859 193.843V200.131H447.671V191.263H448.211L453.611 197.587ZM459.736 200.287C458.752 200.287 457.94 199.963 457.3 199.315C456.668 198.659 456.352 197.855 456.352 196.903C456.352 195.951 456.668 195.155 457.3 194.515C457.932 193.859 458.744 193.531 459.736 193.531C460.712 193.531 461.516 193.859 462.148 194.515C462.788 195.179 463.108 195.975 463.108 196.903C463.108 197.847 462.788 198.651 462.148 199.315C461.508 199.963 460.704 200.287 459.736 200.287ZM461.956 196.903C461.956 196.271 461.74 195.731 461.308 195.283C460.876 194.827 460.352 194.599 459.736 194.599C459.12 194.599 458.596 194.827 458.164 195.283C457.732 195.731 457.516 196.271 457.516 196.903C457.516 197.543 457.732 198.091 458.164 198.547C458.596 199.003 459.12 199.231 459.736 199.231C460.352 199.231 460.876 199.003 461.308 198.547C461.74 198.091 461.956 197.543 461.956 196.903ZM466.72 198.511L468.664 193.699H469.936L467.104 200.119H466.3L463.468 193.699H464.752L466.72 198.511ZM477.581 196.303L475.109 199.027H478.925V200.131H473.393V199.135L476.237 196.087C476.749 195.551 477.113 195.115 477.329 194.779C477.545 194.435 477.653 194.079 477.653 193.711C477.653 193.279 477.497 192.923 477.185 192.643C476.881 192.355 476.501 192.211 476.045 192.211C475.309 192.211 474.593 192.547 473.897 193.219L473.237 192.367C474.093 191.527 475.037 191.107 476.069 191.107C476.877 191.107 477.537 191.351 478.049 191.839C478.561 192.327 478.817 192.971 478.817 193.771C478.817 194.555 478.405 195.399 477.581 196.303ZM483.6 200.275C482.992 200.275 482.456 200.143 481.992 199.879C481.528 199.607 481.16 199.239 480.888 198.775C480.384 197.887 480.132 196.859 480.132 195.691C480.132 194.523 480.384 193.495 480.888 192.607C481.16 192.143 481.528 191.779 481.992 191.515C482.456 191.243 482.992 191.107 483.6 191.107C484.216 191.107 484.756 191.243 485.22 191.515C485.684 191.787 486.044 192.151 486.3 192.607C486.556 193.055 486.744 193.539 486.864 194.059C486.992 194.579 487.056 195.123 487.056 195.691C487.056 196.259 486.992 196.803 486.864 197.323C486.744 197.843 486.556 198.331 486.3 198.787C486.044 199.235 485.684 199.595 485.22 199.867C484.756 200.139 484.216 200.275 483.6 200.275ZM485.844 195.691C485.844 194.675 485.66 193.847 485.292 193.207C484.924 192.551 484.36 192.223 483.6 192.223C482.84 192.223 482.276 192.551 481.908 193.207C481.54 193.847 481.356 194.675 481.356 195.691C481.356 196.715 481.54 197.547 481.908 198.187C482.284 198.835 482.848 199.159 483.6 199.159C484.352 199.159 484.916 198.835 485.292 198.187C485.66 197.547 485.844 196.715 485.844 195.691ZM492.311 196.303L489.839 199.027H493.655V200.131H488.123V199.135L490.967 196.087C491.479 195.551 491.843 195.115 492.059 194.779C492.275 194.435 492.383 194.079 492.383 193.711C492.383 193.279 492.227 192.923 491.915 192.643C491.611 192.355 491.231 192.211 490.775 192.211C490.039 192.211 489.323 192.547 488.627 193.219L487.967 192.367C488.823 191.527 489.767 191.107 490.799 191.107C491.607 191.107 492.267 191.351 492.779 191.839C493.291 192.327 493.547 192.971 493.547 193.771C493.547 194.555 493.135 195.399 492.311 196.303ZM494.298 193.375L496.806 191.263H497.754V200.131H496.566V192.859L494.958 194.203L494.298 193.375Z" fill="white"/>
<path d="M523.415 200.131H520.235V191.263H523.535C524.791 191.263 525.783 191.663 526.511 192.463C527.247 193.271 527.615 194.355 527.615 195.715C527.615 197.083 527.239 198.159 526.487 198.943C525.743 199.735 524.719 200.131 523.415 200.131ZM521.435 192.403V198.991H523.463C524.367 198.991 525.079 198.683 525.599 198.067C526.111 197.451 526.367 196.655 526.367 195.679C526.367 194.719 526.111 193.935 525.599 193.327C525.079 192.711 524.367 192.403 523.463 192.403H521.435ZM535.077 196.795C535.077 196.875 535.065 197.071 535.041 197.383H529.917C530.021 197.951 530.261 198.399 530.637 198.727C531.013 199.055 531.525 199.219 532.173 199.219C532.557 199.219 532.953 199.155 533.361 199.027C533.769 198.891 534.121 198.715 534.417 198.499L534.909 199.375C534.573 199.631 534.157 199.847 533.661 200.023C533.165 200.191 532.661 200.275 532.149 200.275C531.565 200.275 531.045 200.179 530.589 199.987C530.141 199.795 529.785 199.535 529.521 199.207C529.257 198.879 529.057 198.519 528.921 198.127C528.785 197.735 528.717 197.323 528.717 196.891C528.717 195.931 529.017 195.131 529.617 194.491C530.225 193.859 531.009 193.543 531.969 193.543C532.881 193.543 533.625 193.835 534.201 194.419C534.785 195.003 535.077 195.795 535.077 196.795ZM529.917 196.387H533.889C533.857 195.835 533.661 195.395 533.301 195.067C532.949 194.731 532.505 194.563 531.969 194.563C531.449 194.563 531.001 194.735 530.625 195.079C530.249 195.415 530.013 195.851 529.917 196.387ZM539.437 200.275C538.437 200.275 537.621 199.959 536.989 199.327C536.357 198.695 536.041 197.891 536.041 196.915C536.041 195.939 536.361 195.131 537.001 194.491C537.641 193.859 538.473 193.543 539.497 193.543C540.129 193.543 540.709 193.695 541.237 193.999C541.773 194.303 542.165 194.711 542.413 195.223L541.465 195.775C541.249 195.407 540.965 195.119 540.613 194.911C540.269 194.703 539.897 194.599 539.497 194.599C538.841 194.599 538.293 194.819 537.853 195.259C537.421 195.707 537.205 196.259 537.205 196.915C537.205 197.563 537.417 198.111 537.841 198.559C538.257 198.999 538.789 199.219 539.437 199.219C539.837 199.219 540.221 199.111 540.589 198.895C540.965 198.679 541.245 198.403 541.429 198.067L542.389 198.619C542.117 199.123 541.717 199.523 541.189 199.819C540.645 200.123 540.061 200.275 539.437 200.275ZM550.461 196.303L547.989 199.027H551.805V200.131H546.273V199.135L549.117 196.087C549.629 195.551 549.993 195.115 550.209 194.779C550.425 194.435 550.533 194.079 550.533 193.711C550.533 193.279 550.377 192.923 550.065 192.643C549.761 192.355 549.381 192.211 548.925 192.211C548.189 192.211 547.473 192.547 546.777 193.219L546.117 192.367C546.973 191.527 547.917 191.107 548.949 191.107C549.757 191.107 550.417 191.351 550.929 191.839C551.441 192.327 551.697 192.971 551.697 193.771C551.697 194.555 551.285 195.399 550.461 196.303ZM556.48 200.275C555.872 200.275 555.336 200.143 554.872 199.879C554.408 199.607 554.04 199.239 553.768 198.775C553.264 197.887 553.012 196.859 553.012 195.691C553.012 194.523 553.264 193.495 553.768 192.607C554.04 192.143 554.408 191.779 554.872 191.515C555.336 191.243 555.872 191.107 556.48 191.107C557.096 191.107 557.636 191.243 558.1 191.515C558.564 191.787 558.924 192.151 559.18 192.607C559.436 193.055 559.624 193.539 559.744 194.059C559.872 194.579 559.936 195.123 559.936 195.691C559.936 196.259 559.872 196.803 559.744 197.323C559.624 197.843 559.436 198.331 559.18 198.787C558.924 199.235 558.564 199.595 558.1 199.867C557.636 200.139 557.096 200.275 556.48 200.275ZM558.724 195.691C558.724 194.675 558.54 193.847 558.172 193.207C557.804 192.551 557.24 192.223 556.48 192.223C555.72 192.223 555.156 192.551 554.788 193.207C554.42 193.847 554.236 194.675 554.236 195.691C554.236 196.715 554.42 197.547 554.788 198.187C555.164 198.835 555.728 199.159 556.48 199.159C557.232 199.159 557.796 198.835 558.172 198.187C558.54 197.547 558.724 196.715 558.724 195.691ZM565.192 196.303L562.72 199.027H566.536V200.131H561.004V199.135L563.848 196.087C564.36 195.551 564.724 195.115 564.94 194.779C565.156 194.435 565.264 194.079 565.264 193.711C565.264 193.279 565.108 192.923 564.796 192.643C564.492 192.355 564.112 192.211 563.656 192.211C562.92 192.211 562.204 192.547 561.508 193.219L560.848 192.367C561.704 191.527 562.648 191.107 563.68 191.107C564.488 191.107 565.148 191.351 565.66 191.839C566.172 192.327 566.428 192.971 566.428 193.771C566.428 194.555 566.016 195.399 565.192 196.303ZM567.179 193.375L569.687 191.263H570.635V200.131H569.447V192.859L567.839 194.203L567.179 193.375Z" fill="white"/>
<rect x="11.8703" y="0.896362" width="560.795" height="0.890452" rx="0.445226" fill="#686868"/>
<rect x="11.8703" y="42.7493" width="560.795" height="0.890452" rx="0.445226" fill="#686868"/>
<rect x="11.8703" y="83.7085" width="560.795" height="0.890452" rx="0.445226" fill="#686868"/>
<rect x="11.8703" y="124.668" width="560.795" height="0.890452" rx="0.445226" fill="#686868"/>
<g filter="url(#filter0_d_1_193)">
<path d="M20.5389 135.017C20.5389 135.017 58.5762 100.76 80.7255 99.8685C102.875 98.9767 119.838 130.316 137.291 130.316C154.744 130.316 169.084 63.3786 193.536 63.3786C217.988 63.3786 232.161 90.327 247.912 90.327C263.663 90.327 277.515 63.3786 303.991 63.3786C330.467 63.3786 349.261 99.8685 364.13 99.8685C378.999 99.8685 382.323 66.8874 419.617 66.8874C456.91 66.8874 448.092 37.9282 473.704 37.9282C499.316 37.9282 473.704 78.9822 530.975 89.3279" stroke="#805AD5" stroke-width="1.61669" stroke-linecap="round" stroke-linejoin="round"/>
</g>
<rect opacity="0.1" x="519.845" y="71.6192" width="31.9459" height="31.5092" rx="4.59412" fill="#61E224" stroke="#805AD5" stroke-width="0.808346"/>
<defs>
<filter id="filter0_d_1_193" x="11.6471" y="37.1198" width="528.219" height="114.872" filterUnits="userSpaceOnUse" color-interpolation-filters="sRGB">
<feFlood flood-opacity="0" result="BackgroundImageFix"/>
<feColorMatrix in="SourceAlpha" type="matrix" values="0 0 0 0 0 0 0 0 0 0 0 0 0 0 0 0 0 0 127 0" result="hardAlpha"/>
<feOffset dy="8.08346"/>
<feGaussianBlur stdDeviation="4.04173"/>
<feColorMatrix type="matrix" values="0 0 0 0 0 0 0 0 0 0 0 0 0 0 0 0 0 0 0.2 0"/>
<feBlend mode="normal" in2="BackgroundImageFix" result="effect1_dropShadow_1_193"/>
<feBlend mode="normal" in="SourceGraphic" in2="effect1_dropShadow_1_193" result="shape"/>
</filter>
</defs>
</svg>
