<svg width="73" height="20" viewBox="0 0 73 20" fill="none" xmlns="http://www.w3.org/2000/svg">
<path d="M3.71723 9.246L0 14.2773H7.89912L3.71723 9.246Z" fill="#34D35C"/>
<path d="M21.7302 8.866L25.4922 5.698H26.9142V19H25.1322V8.092L22.7202 10.108L21.7302 8.866ZM29.5376 18.118C29.5376 17.806 29.6456 17.542 29.8616 17.326C30.0896 17.11 30.3656 17.002 30.6896 17.002C31.0136 17.002 31.2836 17.11 31.4996 17.326C31.7276 17.542 31.8416 17.806 31.8416 18.118C31.8416 18.454 31.7276 18.736 31.4996 18.964C31.2836 19.18 31.0136 19.288 30.6896 19.288C30.3656 19.288 30.0896 19.18 29.8616 18.964C29.6456 18.736 29.5376 18.454 29.5376 18.118ZM41.8392 18.136C40.9632 18.856 39.8232 19.216 38.4192 19.216C37.0152 19.216 35.8692 18.856 34.9812 18.136C34.0932 17.416 33.6492 16.51 33.6492 15.418C33.6492 14.674 33.8832 13.99 34.3512 13.366C34.8312 12.73 35.4672 12.262 36.2592 11.962V11.926C35.6112 11.626 35.1072 11.212 34.7472 10.684C34.3872 10.156 34.2072 9.58 34.2072 8.956C34.2072 7.96 34.5972 7.126 35.3772 6.454C36.1452 5.794 37.1592 5.464 38.4192 5.464C39.6672 5.464 40.6752 5.794 41.4432 6.454C42.2232 7.126 42.6132 7.96 42.6132 8.956C42.6132 9.592 42.4272 10.174 42.0552 10.702C41.6952 11.218 41.1912 11.626 40.5432 11.926V11.98C41.3352 12.268 41.9712 12.724 42.4512 13.348C42.9312 13.972 43.1712 14.662 43.1712 15.418C43.1712 16.51 42.7272 17.416 41.8392 18.136ZM40.8852 9.118C40.8852 8.494 40.6512 7.984 40.1832 7.588C39.7272 7.18 39.1392 6.976 38.4192 6.976C37.6632 6.976 37.0512 7.18 36.5832 7.588C36.1272 7.984 35.8992 8.494 35.8992 9.118C35.8992 9.73 36.1272 10.24 36.5832 10.648C37.0512 11.044 37.6572 11.242 38.4012 11.242C39.1452 11.242 39.7452 11.044 40.2012 10.648C40.6572 10.24 40.8852 9.73 40.8852 9.118ZM38.4192 17.65C39.2952 17.65 40.0092 17.422 40.5612 16.966C41.1132 16.498 41.3892 15.904 41.3892 15.184C41.3892 14.488 41.1132 13.918 40.5612 13.474C40.0212 13.018 39.3072 12.79 38.4192 12.79C37.5192 12.79 36.7932 13.018 36.2412 13.474C35.6892 13.918 35.4132 14.488 35.4132 15.184C35.4132 15.904 35.6892 16.498 36.2412 16.966C36.8052 17.422 37.5312 17.65 38.4192 17.65ZM53.0892 18.136C52.2132 18.856 51.0732 19.216 49.6692 19.216C48.2652 19.216 47.1192 18.856 46.2312 18.136C45.3432 17.416 44.8992 16.51 44.8992 15.418C44.8992 14.674 45.1332 13.99 45.6012 13.366C46.0812 12.73 46.7172 12.262 47.5092 11.962V11.926C46.8612 11.626 46.3572 11.212 45.9972 10.684C45.6372 10.156 45.4572 9.58 45.4572 8.956C45.4572 7.96 45.8472 7.126 46.6272 6.454C47.3952 5.794 48.4092 5.464 49.6692 5.464C50.9172 5.464 51.9252 5.794 52.6932 6.454C53.4732 7.126 53.8632 7.96 53.8632 8.956C53.8632 9.592 53.6772 10.174 53.3052 10.702C52.9452 11.218 52.4412 11.626 51.7932 11.926V11.98C52.5852 12.268 53.2212 12.724 53.7012 13.348C54.1812 13.972 54.4212 14.662 54.4212 15.418C54.4212 16.51 53.9772 17.416 53.0892 18.136ZM52.1352 9.118C52.1352 8.494 51.9012 7.984 51.4332 7.588C50.9772 7.18 50.3892 6.976 49.6692 6.976C48.9132 6.976 48.3012 7.18 47.8332 7.588C47.3772 7.984 47.1492 8.494 47.1492 9.118C47.1492 9.73 47.3772 10.24 47.8332 10.648C48.3012 11.044 48.9072 11.242 49.6512 11.242C50.3952 11.242 50.9952 11.044 51.4512 10.648C51.9072 10.24 52.1352 9.73 52.1352 9.118ZM49.6692 17.65C50.5452 17.65 51.2592 17.422 51.8112 16.966C52.3632 16.498 52.6392 15.904 52.6392 15.184C52.6392 14.488 52.3632 13.918 51.8112 13.474C51.2712 13.018 50.5572 12.79 49.6692 12.79C48.7692 12.79 48.0432 13.018 47.4912 13.474C46.9392 13.918 46.6632 14.488 46.6632 15.184C46.6632 15.904 46.9392 16.498 47.4912 16.966C48.0552 17.422 48.7812 17.65 49.6692 17.65ZM61.6572 11.062C60.9852 11.698 60.1932 12.016 59.2812 12.016C58.3572 12.016 57.5592 11.698 56.8872 11.062C56.2272 10.414 55.8972 9.64 55.8972 8.74C55.8972 7.828 56.2272 7.06 56.8872 6.436C57.5472 5.788 58.3452 5.464 59.2812 5.464C60.1932 5.464 60.9852 5.788 61.6572 6.436C62.3172 7.06 62.6472 7.828 62.6472 8.74C62.6472 9.64 62.3172 10.414 61.6572 11.062ZM59.1552 19H57.3552L67.1472 5.698H68.9652L59.1552 19ZM59.2812 6.796C58.7172 6.796 58.2492 6.982 57.8772 7.354C57.5052 7.726 57.3192 8.188 57.3192 8.74C57.3192 9.292 57.5052 9.76 57.8772 10.144C58.2612 10.516 58.7292 10.702 59.2812 10.702C59.8332 10.702 60.2952 10.516 60.6672 10.144C61.0512 9.76 61.2432 9.292 61.2432 8.74C61.2432 8.188 61.0512 7.726 60.6672 7.354C60.2952 6.982 59.8332 6.796 59.2812 6.796ZM64.7352 18.262C64.0752 17.638 63.7452 16.876 63.7452 15.976C63.7452 15.076 64.0752 14.302 64.7352 13.654C65.3952 13.006 66.1932 12.682 67.1292 12.682C68.0652 12.682 68.8632 13.006 69.5232 13.654C70.1952 14.302 70.5312 15.076 70.5312 15.976C70.5312 16.864 70.1952 17.626 69.5232 18.262C68.8512 18.898 68.0532 19.216 67.1292 19.216C66.2052 19.216 65.4072 18.898 64.7352 18.262ZM67.1292 17.902C67.6932 17.902 68.1612 17.722 68.5332 17.362C68.9172 16.99 69.1092 16.528 69.1092 15.976C69.1092 15.412 68.9172 14.938 68.5332 14.554C68.1612 14.17 67.6932 13.978 67.1292 13.978C66.5772 13.978 66.1092 14.17 65.7252 14.554C65.3532 14.938 65.1672 15.412 65.1672 15.976C65.1672 16.516 65.3592 16.972 65.7432 17.344C66.1272 17.716 66.5892 17.902 67.1292 17.902Z" fill="#34D35C"/>
</svg>
