<svg width="39" height="20" viewBox="0 0 39 20" fill="none" xmlns="http://www.w3.org/2000/svg">
<path d="M33.05 3.58274L38.6643 18.7068L-3.05176e-05 19.1328V0.174516L1.9067 1.66562C2.29511 1.3106 3.24142 0.515339 3.91937 0.174516C4.59732 -0.166308 8.08594 1.66561 9.7455 2.62418C10.5223 2.41116 12.4573 2.11294 13.9827 2.62418C15.8894 3.26322 17.1606 5.18035 17.6902 3.58274C18.2199 1.98513 20.4444 3.58274 21.5037 3.58274C22.3511 3.58274 25.1759 2.9437 26.4824 2.62418C27.2592 3.33422 29.173 4.71172 30.6137 4.54131C32.0543 4.37089 32.8382 3.83126 33.05 3.58274Z" fill="url(#paint0_linear_1_752)" fill-opacity="0.12"/>
<defs>
<linearGradient id="paint0_linear_1_752" x1="19.3321" y1="0.132812" x2="19.3321" y2="19.1328" gradientUnits="userSpaceOnUse">
<stop stop-color="#FF001F"/>
<stop offset="0.901042" stop-color="white"/>
</linearGradient>
</defs>
</svg>
