<svg width="17" height="18" viewBox="0 0 17 18" fill="none" xmlns="http://www.w3.org/2000/svg">
<path d="M8.19026 2.76268V3.93478H5.06465C4.65055 3.93602 4.25376 4.10107 3.96095 4.39389C3.66813 4.6867 3.50308 5.08349 3.50185 5.49759V8.6232H2.32974C1.81164 8.6232 1.31476 8.82902 0.948405 9.19537C0.582051 9.56172 0.376236 10.0586 0.376236 10.5767C0.376236 11.0948 0.582051 11.5917 0.948405 11.958C1.31476 12.3244 1.81164 12.5302 2.32974 12.5302H3.50185V15.6558C3.50308 16.0699 3.66813 16.4667 3.96095 16.7595C4.25376 17.0523 4.65055 17.2174 5.06465 17.2186H8.03398V16.0465C8.03398 15.487 8.25626 14.9503 8.65192 14.5547C9.04759 14.159 9.58422 13.9367 10.1438 13.9367C10.7033 13.9367 11.24 14.159 11.6356 14.5547C12.0313 14.9503 12.2536 15.487 12.2536 16.0465V17.2186H15.2229C15.637 17.2174 16.0338 17.0523 16.3266 16.7595C16.6194 16.4667 16.7845 16.0699 16.7857 15.6558V12.6865H15.6136C15.054 12.6865 14.5174 12.4642 14.1217 12.0686C13.7261 11.6729 13.5038 11.1363 13.5038 10.5767C13.5038 10.0172 13.7261 9.48052 14.1217 9.08486C14.5174 8.6892 15.054 8.46692 15.6136 8.46692H16.7857V5.49759C16.7845 5.08349 16.6194 4.6867 16.3266 4.39389C16.0338 4.10107 15.637 3.93602 15.2229 3.93478H12.0973V2.76268C12.0973 2.24458 11.8915 1.7477 11.5251 1.38134C11.1588 1.01499 10.6619 0.809174 10.1438 0.809174C9.62567 0.809174 9.12879 1.01499 8.76243 1.38134C8.39608 1.7477 8.19026 2.24458 8.19026 2.76268Z" fill="#7F56DC"/>
</svg>
